<?xml version="1.0" encoding="UTF-8" standalone="no"?><svg xmlns="http://www.w3.org/2000/svg" xmlns:xlink="http://www.w3.org/1999/xlink" fill="#ffffff" height="126.1" preserveAspectRatio="xMidYMid meet" version="1" viewBox="0.0 -0.1 113.7 126.1" width="113.7" zoomAndPan="magnify"><g id="change1_1"><path d="M49.997,73.061c0.39-0.054,0.711-0.331,0.822-0.708l5.439-18.43c0.094-0.316,0.025-0.658-0.183-0.914 s-0.517-0.396-0.857-0.366c-14.952,1.207-25.819-0.585-33.15-5.471c13.733-7.438,29.729-12.204,47.601-14.161v9.718 c0,0.366,0.2,0.703,0.521,0.878c0.321,0.175,0.714,0.16,1.021-0.039l32.3-20.87c0.285-0.184,0.457-0.5,0.457-0.84 s-0.172-0.656-0.457-0.84l-32.3-20.86c-0.308-0.199-0.7-0.213-1.021-0.039C69.87,0.297,69.67,0.634,69.67,1v10.28 C43.158,14.139,20.76,23.108,3.089,37.943C1.126,39.586,0,41.99,0,44.54V60.8c0,1.455,0.794,2.885,2.361,4.25 c5.492,4.786,20.697,8.758,36.323,8.757C42.475,73.807,46.291,73.573,49.997,73.061z M2,44.54c0-1.956,0.864-3.802,2.373-5.064 c17.56-14.741,39.899-23.59,66.398-26.301c0.511-0.052,0.898-0.482,0.898-0.995V2.837l29.457,19.023L71.67,40.893V31.9 c0-0.283-0.12-0.553-0.33-0.742c-0.21-0.19-0.491-0.281-0.772-0.252c-19.165,1.967-36.257,7.094-50.799,15.239 c-0.029,0.013-0.059,0.028-0.088,0.044C13.421,49.702,7.482,53.868,2,58.589V44.54z" fill="inherit"/><path d="M111.379,60.951c-6.824-5.947-28.65-10.635-47.636-8.011c-0.39,0.054-0.711,0.331-0.822,0.708l-5.439,18.43 c-0.094,0.316-0.025,0.658,0.183,0.914s0.518,0.396,0.857,0.366c14.953-1.21,25.819,0.584,33.15,5.471 C77.938,86.266,61.942,91.032,44.07,92.988V83.27c0-0.366-0.2-0.703-0.521-0.878s-0.714-0.16-1.021,0.039l-32.3,20.87 c-0.285,0.184-0.457,0.5-0.457,0.84s0.172,0.656,0.457,0.84l32.3,20.86c0.165,0.106,0.354,0.16,0.543,0.16 c0.164,0,0.329-0.041,0.479-0.122c0.321-0.175,0.521-0.512,0.521-0.878v-10.28c26.512-2.859,48.91-11.828,66.581-26.663 c1.963-1.643,3.089-4.047,3.089-6.597V65.2C113.74,63.745,112.946,62.316,111.379,60.951z M59.81,71.254l4.846-16.419 c18.038-2.323,39.114,2.138,45.41,7.623c0.664,0.578,1.437,1.421,1.629,2.328c-5.572,4.953-11.648,9.312-18.074,12.97 C86.121,72.339,75.041,70.201,59.81,71.254z" fill="inherit"/></g></svg>