<?xml version="1.0" encoding="UTF-8"?><svg xmlns="http://www.w3.org/2000/svg" xmlns:xlink="http://www.w3.org/1999/xlink" clip-rule="evenodd" fill-rule="evenodd" height="512.0" image-rendering="optimizeQuality" preserveAspectRatio="xMidYMid meet" shape-rendering="geometricPrecision" text-rendering="geometricPrecision" version="1.0" viewBox="50.6 -0.0 410.8 512.0" width="410.8" zoomAndPan="magnify"><g><g fill-rule="nonzero" id="change1_1"><path d="M285.802 343.949c3.30001,0 5.9764,-2.67639 5.9764,-5.9764 0,-3.30001 -2.67639,-5.9764 -5.9764,-5.9764l-29.8017 0.00118111 0 -0.0236221 -43.8804 0 -21.9272 -37.9796 0.0118111 -0.00708664c-0.0944885,-0.164174 -0.197245,-0.323623 -0.304725,-0.474805l-21.6556 -37.5131 21.9331 -37.9915 0.01063 0.00590553 0.00472442 -0.00708664 0.0118111 0.00708664c0.067323,-0.118111 0.129922,-0.236221 0.188977,-0.356694l21.7394 -37.6525 43.8675 -0.00118111 0 0.0236221 43.8804 0 21.9272 37.9796 -0.0118111 0.00708664c0.0944885,0.164174 0.197245,0.323623 0.304725,0.474805l21.6556 37.5131 -13.226 22.9087c-1.64292,2.85946 -0.656695,6.51262 2.20276,8.15554 2.85946,1.64292 6.51262,0.656695 8.15554,-2.20276l14.6481 -25.3725c1.32284,-1.85434 1.52717,-4.38663 0.314174,-6.489l-0.0236221 0.0129922 -23.3847 -40.506c-0.0767719,-0.166536 -0.161812,-0.333072 -0.255119,-0.494883l-5.19569 3.00001 5.17915 -3.00001 -23.4438 -40.6052c-0.973231,-2.00197 -3.02599,-3.38151 -5.40002,-3.38151l-47.3269 0 0 0.0236221 -46.7978 0.00118111c-2.25119,-0.197245 -4.52127,0.889373 -5.726,2.97639l0.0118111 0.00708664 -23.4556 40.6253c-0.0767719,0.114567 -0.15,0.232678 -0.219686,0.353151l5.19569 3.00001 -5.17915 -2.97639 -23.3658 40.473c-1.32284,1.85434 -1.52717,4.38663 -0.314174,6.489l0.0236221 -0.0129922 23.3847 40.506c0.0767719,0.166536 0.161812,0.333072 0.255119,0.494883l5.19569 -3.00001 -5.17915 3.00001 23.4438 40.6052c0.973231,2.00197 3.02599,3.38151 5.40002,3.38151l47.3269 0 0 -0.0236221 29.8017 -0.00118111z" fill="inherit"/><path d="M425.268 3.38151l17.3623 30.0721 17.5831 30.4536 -5.17915 3.00001 5.19569 -3.00001c1.18465,2.05276 1.01811,4.51419 -0.223229,6.35671l-17.3717 30.091 0.0118111 0.00708664c-0.0956696,0.164174 -0.197245,0.323623 -0.304725,0.475986l-17.2938 29.954 -5.17915 -2.97639 5.19569 3.00001c-1.11024,1.92284 -3.12403,2.99765 -5.19569,3.00001l-0.0165355 0 -35.1497 0 -35.1651 0c-2.37402,0 -4.42679,-1.37953 -5.40002,-3.38151l-17.3623 -30.0733 5.17915 -3.00001 -5.19569 3.00001c-0.0933074,-0.161812 -0.177166,-0.328347 -0.255119,-0.494883l-17.3044 -29.9717 -0.022441 0.0129922c-1.21181,-2.09883 -1.01103,-4.62639 0.308269,-6.48073l17.2902 -29.9493 5.17915 2.97639 -5.19569 -3.00001c0.0696853,-0.120473 0.142914,-0.238583 0.219686,-0.353151l17.3753 -30.0934 -0.0118111 -0.00708664c1.11024,-1.92284 3.12403,-2.99765 5.19569,-3.00001l0.0165355 0 35.1485 0 35.1651 0c2.37402,0 4.42679,1.37953 5.40002,3.38151zm7.00396 36.0722l-15.8504 -27.4536 -31.7186 0 -31.7186 0 -15.6449 27.0969c-0.0590553,0.120473 -0.121654,0.238583 -0.188977,0.356694l-0.0118111 -0.00708664 -0.00472442 0.00708664 -0.01063 -0.00590553 -15.8528 27.4595 15.5752 26.9776c0.107481,0.152363 0.209056,0.311812 0.304725,0.475986l-0.0118111 0.00708664 15.8469 27.4477 31.7174 0 31.7328 0 15.5646 -26.9587c0.077953,-0.166536 0.161812,-0.333072 0.255119,-0.494883l5.19569 3.00001 -5.17915 -3.00001 15.8504 -27.4548 -15.8504 -27.4536z" fill="inherit"/><path d="M183.364 223.861c3.313,0 6.00002,-2.68702 6.00002,-6.00002 0,-3.313 -2.68702,-6.00002 -6.00002,-6.00002l-10.0677 0 -31.7174 0 -15.8504 -27.4536 -15.8504 -27.4548 15.8504 -27.4536 15.8634 -27.4761 31.7044 -0.00118111 0 0.0236221 31.7186 0 15.8504 27.4536 15.8504 27.4548 -8.12483 14.0729c-1.65591,2.85946 -0.680317,6.52325 2.17914,8.17916 2.85946,1.65591 6.52325,0.680317 8.17916,-2.17914l9.65082 -16.7162c1.24134,-1.84253 1.40788,-4.30395 0.223229,-6.35671l-5.19569 3.00001 5.17915 -3.00001 -17.5831 -30.4548 -17.3623 -30.0721c-0.973231,-2.00197 -3.02599,-3.38151 -5.40002,-3.38151l-35.1651 0 0 0.0236221 -34.6348 0.00118111c-2.25119,-0.197245 -4.52127,0.890554 -5.726,2.97639l0.0118111 0.00708664 -17.5772 30.4454 -17.3764 30.0969c-1.24134,1.84253 -1.40788,4.30395 -0.223229,6.35671l5.19569 -3.00001 -5.17915 3.00001 17.5831 30.4548 17.3623 30.0721c0.973231,2.00197 3.02599,3.38151 5.40002,3.38151l35.1639 0 10.0677 0z" fill="inherit"/><path d="M299.084 169.784c-2.34213,2.34213 -2.34213,6.14293 0,8.48507 2.34213,2.34213 6.14293,2.34213 8.48507,0l46.2108 -46.2108c2.34213,-2.34213 2.34213,-6.14293 0,-8.48507 -2.34213,-2.34213 -6.14293,-2.34213 -8.48507,0l-46.2108 46.2108z" fill="inherit"/><path d="M158.22 379.942c-2.34213,2.34213 -2.34213,6.14293 0,8.48507 2.34213,2.34213 6.14293,2.34213 8.48507,0l46.2108 -46.2108c2.34213,-2.34213 2.34213,-6.14293 0,-8.48507 -2.34213,-2.34213 -6.14293,-2.34213 -8.48507,0l-46.2108 46.2108z" fill="inherit"/><path d="M393.914 279.268l17.3623 30.0721 -5.17915 3.00001 5.19569 -3.00001c0.0933074,0.161812 0.178347,0.328347 0.255119,0.494883l17.3044 29.9729 0.022441 -0.0129922c1.21181,2.09883 1.01103,4.62639 -0.308269,6.48073l-17.2902 29.9493 -5.17915 -2.97639 5.19569 3.00001c-0.0696853,0.120473 -0.142914,0.238583 -0.219686,0.353151l-17.3753 30.0934 0.0118111 0.00708664c-1.11024,1.92284 -3.12403,2.99765 -5.19569,3.00001l-0.0165355 0 -35.1485 0 -35.1651 0c-2.37402,0 -4.42679,-1.37953 -5.40002,-3.38151l-17.3623 -30.0721 5.17915 -3.00001 -5.19569 3.00001c-0.0933074,-0.161812 -0.178347,-0.328347 -0.255119,-0.494883l-17.3044 -29.9729 -0.022441 0.0129922c-1.21181,-2.09883 -1.01103,-4.62639 0.308269,-6.48073l17.2902 -29.9493 17.5819 -30.4536 5.17915 2.97639 -5.19569 -3.00001c1.11024,-1.92284 3.12403,-2.99765 5.19569,-3.00001l0.0165355 0 35.1497 0 35.1651 0c2.37402,0 4.42679,1.37953 5.40002,3.38151zm6.99923 36.0651l-15.8457 -27.4465 -31.7186 0 -31.7328 0 -15.8363 27.43 -15.8634 27.4772 15.5752 26.98c0.107481,0.151182 0.210237,0.310631 0.304725,0.474805l-0.0118111 0.00708664 15.8457 27.4465 31.7186 0 31.7186 0 15.6449 -27.0969c0.0590553,-0.120473 0.121654,-0.238583 0.188977,-0.356694l0.0118111 0.00708664 0.00472442 -0.00708664 0.01063 0.00590553 15.8528 -27.4595 -15.5752 -26.98c-0.107481,-0.151182 -0.210237,-0.310631 -0.304725,-0.474805l0.0118111 -0.00708664z" fill="inherit"/><path d="M167.862 381.566l17.3623 30.0733 -5.17915 3.00001 5.19569 -3.00001c0.0933074,0.161812 0.177166,0.328347 0.255119,0.494883l17.3044 29.9717 0.022441 -0.0129922c1.21181,2.09883 1.01103,4.62639 -0.308269,6.48073l-17.2902 29.9493 -5.17915 -2.97639 5.19569 3.00001c-0.0696853,0.120473 -0.142914,0.238583 -0.219686,0.353151l-17.3753 30.0934 0.0118111 0.00708664c-1.11024,1.92284 -3.12403,2.99765 -5.19569,3.00001l-0.0165355 0 -35.1485 0 -35.1651 0c-2.37402,0 -4.42679,-1.37953 -5.40002,-3.38151l-17.3623 -30.0721 -17.5831 -30.4536 5.17915 -3.00001 -5.19569 3.00001c-1.18465,-2.05276 -1.01811,-4.51419 0.223229,-6.35671l17.3717 -30.091 -0.0118111 -0.00708664c0.0956696,-0.164174 0.197245,-0.323623 0.304725,-0.475986l17.2938 -29.954 5.17915 2.97639 -5.19569 -3.00001c1.11024,-1.92284 3.12403,-2.99765 5.19569,-3.00001l0.0165355 0 35.1497 0 35.1651 0c2.37402,0 4.42679,1.37953 5.40002,3.38151zm6.99923 36.0663l-15.8469 -27.4477 -31.7174 0 -31.7328 0 -15.5646 26.9587c-0.077953,0.166536 -0.161812,0.333072 -0.255119,0.494883l-5.19569 -3.00001 5.17915 3.00001 -15.8504 27.4548 15.8504 27.4536 15.8504 27.4536 31.7186 0 31.7186 0 15.6449 -27.0969c0.0590553,-0.120473 0.121654,-0.238583 0.188977,-0.356694l0.0118111 0.00708664 0.00472442 -0.00708664 0.01063 0.00590553 15.8528 -27.4595 -15.5752 -26.9776c-0.107481,-0.152363 -0.209056,-0.311812 -0.304725,-0.475986l0.0118111 -0.00708664z" fill="inherit"/></g></g><path d="M0 0H512V512H0z" fill="none"/></svg>